<?xml version="1.0" encoding="utf-8"?>
<!-- Generator: Adobe Illustrator 22.0.0, SVG Export Plug-In . SVG Version: 6.00 Build 0)  -->
<svg version="1.1" xmlns="http://www.w3.org/2000/svg" xmlns:xlink="http://www.w3.org/1999/xlink" x="0px" y="0px" viewBox="0 0 500 500" xml:space="preserve">
	<g>
		<path fill="#00ACC1" d="M482.4,175.2c-1.4-4.2-5.3-7.1-9.7-7.1l-136.4,0c-0.3,0-0.7,0.1-1,0.2c-7,2.6-9.1,9.9-6,15.2l111.8,193.4
			c1.8,3.1,5.1,5.1,8.7,5.1c0,0,0.1,0,0.1,0c3.6,0,6.9-1.9,8.7-4.9c23.1-38.5,35.3-82.4,35.3-126.9
			C494,224.6,490.1,199.5,482.4,175.2z"/>
		<path fill="#00ACC1" d="M223.8,132.2c-3.1,5.3-1,12.8,6.2,15.2c0.3,0.1,0.6,0.1,0.9,0.1l226.1,0c0.3,0,0.6,0,0.9-0.1
			c7.2-2.4,9.3-9.7,6.4-15C430.4,69.8,371.3,25.2,302.3,10c-4.4-0.9-8.8,1-11,4.9L223.8,132.2z"/>
		<path fill="#00ACC1" d="M364.7,285.3c-1.8-3.2-5.2-5.1-8.8-5.1c0,0,0,0,0,0c-3.6,0-7,2-8.8,5.1l-112.2,195c-1.8,3.1-1.8,7-0.1,10.1
			c1.7,3.2,5,5.2,8.6,5.3l2.3,0.1c1.4,0.1,2.8,0.2,4.2,0.2c68.9,0,134.9-29.8,181.3-81.6c2.9-3.3,3.4-8.2,1.2-12L364.7,285.3z"/>
		<path fill="#00ACC1" d="M171.8,318.9c-0.1-0.3-0.2-0.6-0.3-0.8L59.6,121.7c-1.8-3.1-5.1-5.1-8.7-5.1c-3.7-0.5-7,1.8-8.8,4.9
			C18.3,160.3,5.8,204.8,5.8,250.1c0,25.4,3.9,50.6,11.6,74.9c1.4,4.2,5.3,7.1,9.7,7.1h134.8C168,332,173.4,326.5,171.8,318.9z"/>
		<path fill="#00ACC1" d="M276,367.9c3.1-5.3,1-12.7-6.2-15.2c-0.3-0.1-0.6-0.2-0.9-0.2H42.8c-0.3,0-0.6,0-0.9,0.1
			c-7.2,2.4-9.3,9.7-6.4,15c33.9,62.6,92.9,107.3,162,122.5c0.7,0.2,1.5,0.2,2.2,0.2c3.6,0,7-1.9,8.8-5.1L276,367.9z"/>
		<path fill="#00ACC1" d="M137.7,217.7c0.5,0.8,1.4,1.4,2.3,1.4h4.3c3.6,0,7-1.9,8.8-5.1L264.9,19.9c1.8-3.1,1.8-7,0.1-10.1
			c-1.7-3.2-5-5.2-8.6-5.3l-2.3-0.1c-1.4-0.1-2.8-0.2-4.2-0.2c-68.1,0-133.7,29.2-180,80.2c-3,3.3-3.5,8.1-1.3,12L137.7,217.7z"/>
	</g>
	<g>
		<path fill="#FF1D25" d="M283.4,248.3L236,215.8c-0.7-0.5-1.5-0.5-2.2-0.1c-0.7,0.4-1.1,1.1-1.1,1.9v65c0,0.8,0.4,1.5,1.1,1.9
			c0.3,0.2,0.7,0.3,1,0.3c0.4,0,0.8-0.1,1.2-0.4l47.3-32.5c0.6-0.4,0.9-1.1,0.9-1.8C284.3,249.4,284,248.7,283.4,248.3z M237,276.6
			v-53c0-0.8,0.9-1.3,1.6-0.8l38.6,26.5c0.6,0.4,0.6,1.3,0,1.6l-38.6,26.5C237.9,277.9,237,277.4,237,276.6z"/>
		<path fill="#FF1D25" d="M296.8,202.3c-68.6-52.7-146.6,25.9-94.3,95c0.2,0.2,0.4,0.4,0.6,0.6c68.6,52.7,146.6-25.9,94.3-95
			C297.2,202.6,297,202.4,296.8,202.3z M293.6,294.7c-64,49.1-136.8-24.2-88-88.7c0.2-0.2,0.4-0.4,0.6-0.6
			c64-49.1,136.8,24.2,88,88.7C294,294.3,293.8,294.5,293.6,294.7z"/>
	</g>
</svg>