<?xml version="1.0" standalone="no"?>
<!DOCTYPE svg PUBLIC "-//W3C//DTD SVG 20010904//EN"
 "http://www.w3.org/TR/2001/REC-SVG-20010904/DTD/svg10.dtd">
<svg version="1.0" xmlns="http://www.w3.org/2000/svg"
 width="376.000000pt" height="376.000000pt" viewBox="0 0 376.000000 376.000000"
 preserveAspectRatio="xMidYMid meet">
<metadata>
Created by potrace 1.11, written by Peter Selinger 2001-2013
</metadata>
<g transform="translate(0.000000,376.000000) scale(0.100000,-0.100000)"
fill="#000000" stroke="none">
<path d="M1717 3754 c-1 -1 -29 -4 -62 -8 -325 -34 -689 -188 -952 -402 -115
-94 -221 -203 -228 -236 -6 -26 19 -76 201 -391 114 -199 238 -416 276 -483
68 -118 70 -121 102 -119 48 4 71 19 98 67 14 24 57 99 98 168 40 69 81 141
92 160 26 45 302 521 493 850 82 140 155 272 163 292 13 34 13 40 -2 63 -25
38 -58 46 -174 43 -57 -1 -104 -3 -105 -4z"/>
<path d="M2211 3691 c-14 -16 -96 -150 -180 -297 -85 -148 -201 -349 -258
-446 -114 -195 -124 -230 -79 -266 24 -18 52 -19 910 -19 l886 0 25 23 c43 39
33 77 -59 219 -99 153 -252 323 -395 437 -73 58 -215 158 -225 158 -3 0 -28
14 -57 31 -118 69 -403 174 -503 184 -33 3 -43 -1 -65 -24z"/>
<path d="M293 2878 c-18 -20 -103 -163 -103 -173 0 -2 -13 -32 -29 -67 -64
-140 -119 -328 -145 -503 -19 -123 -14 -449 8 -570 29 -154 66 -274 93 -295
22 -17 52 -18 568 -18 l544 0 25 23 c16 15 26 35 26 52 0 19 -57 128 -161 308
-88 154 -172 300 -186 325 -14 25 -68 119 -121 210 -52 91 -109 190 -125 220
-17 30 -38 67 -49 82 -10 14 -18 28 -18 31 0 3 -27 51 -60 107 -33 56 -60 104
-60 106 0 2 -18 33 -40 68 -22 35 -40 68 -40 74 0 18 -43 42 -75 42 -20 0 -39
-8 -52 -22z"/>
<path d="M2506 2485 c-41 -38 -34 -67 55 -220 45 -77 92 -159 105 -181 13 -23
55 -94 94 -159 38 -65 70 -119 70 -121 0 -1 27 -49 61 -106 34 -57 71 -121 84
-143 148 -262 381 -654 397 -667 28 -25 70 -22 100 5 36 33 151 273 192 399
38 117 71 266 85 393 9 82 7 390 -3 435 -3 13 -8 42 -11 65 -10 72 -54 245
-70 276 -9 16 -27 34 -39 39 -13 5 -265 9 -559 9 l-536 -1 -25 -23z"/>
<path d="M1700 2346 c-36 -13 -85 -35 -109 -50 -107 -68 -199 -205 -222 -331
-32 -177 46 -399 172 -490 20 -14 128 -66 147 -70 10 -3 35 -9 57 -15 44 -11
163 -14 208 -5 235 47 400 248 400 490 0 101 -14 159 -65 260 -41 83 -78 121
-154 162 -147 78 -298 95 -434 49z m288 -27 c189 -61 315 -218 329 -411 9
-132 -53 -308 -136 -380 -46 -41 -161 -93 -231 -106 -193 -36 -387 50 -487
216 -91 153 -88 327 9 499 42 73 67 96 158 144 101 52 261 70 358 38z"/>
<path d="M1729 2133 c-4 -23 -5 -500 -1 -510 2 -7 9 -13 14 -13 5 0 72 43 149
96 76 52 162 110 189 128 57 38 56 42 -25 98 -27 19 -107 73 -177 121 -120 83
-146 97 -149 80z m187 -150 c79 -53 144 -102 144 -108 0 -11 -278 -205 -293
-205 -4 0 -7 92 -7 205 0 113 3 205 6 205 4 0 71 -44 150 -97z"/>
<path d="M2660 1644 c-9 -3 -22 -15 -30 -27 -15 -24 -99 -169 -135 -232 -13
-22 -134 -231 -270 -465 -136 -234 -259 -445 -273 -470 -24 -44 -36 -64 -140
-240 -59 -99 -68 -129 -51 -162 24 -46 35 -48 189 -42 130 4 205 10 205 14 0
1 16 3 35 6 72 9 243 55 337 90 139 52 276 123 401 207 125 85 146 102 270
222 80 78 93 95 94 125 2 29 -43 111 -261 485 -144 248 -272 460 -284 473 -19
21 -49 26 -87 16z"/>
<path d="M243 1074 c-44 -44 -30 -86 89 -261 240 -357 639 -640 1056 -747 99
-26 125 -27 149 -8 12 9 63 89 114 177 51 88 155 268 232 400 77 132 151 260
165 285 13 25 28 49 33 55 18 18 10 75 -14 99 l-23 23 -889 0 -889 0 -23 -23z"/>
</g>
</svg>
