<?xml version="1.0" encoding="utf-8"?>
<!-- Generator: Adobe Illustrator 22.0.0, SVG Export Plug-In . SVG Version: 6.00 Build 0)  -->
<svg version="1.1" id="Layer_1" xmlns="http://www.w3.org/2000/svg" xmlns:xlink="http://www.w3.org/1999/xlink" x="0px" y="0px"
	 viewBox="0 0 1200 504" style="enable-background:new 0 0 1200 504;" xml:space="preserve">
<style type="text/css">
	.st0{fill:#333333;}
	.st1{fill:#FDD835;}
	.st2{fill:#00ACC1;}
	.st3{fill:#FF1D25;}
</style>
<g>
	<g>
		<path class="st0" d="M557.9,87.6l-9.7,10.3c-0.4,0.4-0.6,0.9-0.6,1.4v30.2c0,1.1-0.9,2.1-2.1,2.1h-14.3c-1.1,0-2.1-0.9-2.1-2.1
			V27.7c0-1.1,0.9-2.1,2.1-2.1h14.3c1.1,0,2.1,0.9,2.1,2.1v41.8c0,2,2.5,2.8,3.7,1.3l6.5-8l30.4-36.4c0.4-0.5,1-0.7,1.6-0.7h16.9
			c1.8,0,2.7,2.1,1.6,3.4l-35.5,42.3c-0.6,0.7-0.6,1.8-0.1,2.5l38.4,54.5c1,1.4,0,3.3-1.7,3.3h-16.8c-0.7,0-1.3-0.3-1.7-0.9
			l-29.8-42.8C560.4,86.8,558.8,86.7,557.9,87.6z"/>
		<path class="st0" d="M668,130.2c-0.3-0.7-0.5-1.5-0.7-2.5c-0.4-1.5-2.2-2-3.4-1.1c-5.1,4.2-11.1,6.4-18,6.4
			c-7.9,0-14.4-2.3-19.4-6.8c-5-4.5-7.5-10.1-7.5-16.7c0-8.4,3.1-14.8,9.4-19.3c6.2-4.5,15.2-6.7,26.8-6.7h8.8
			c1.1,0,2.1-0.9,2.1-2.1v-3.1c0-4.1-1.1-7.3-3.4-9.8c-2.3-2.4-5.8-3.7-10.4-3.7c-4,0-7.3,1-9.9,3c-2.1,1.6-3.3,3.6-3.7,5.9
			c-0.2,1-1,1.7-2,1.7l-13.6,0c-1.2,0-2.2-1.1-2.1-2.3c0.4-3.4,1.8-6.7,4.2-9.8c2.9-3.8,6.8-6.7,11.7-8.8c4.9-2.1,10.4-3.2,16.5-3.2
			c9.2,0,16.6,2.3,22.1,7c5.5,4.6,8.3,11.2,8.4,19.5v35.5c0,7.1,1,12.7,3,17v1.2l-16.7,0C669.1,131.6,668.3,131.1,668,130.2z
			 M649.1,118.8c3.5,0,6.8-0.8,9.9-2.5c2.9-1.6,5.1-3.7,6.7-6.3c0.2-0.3,0.3-0.7,0.3-1.1l0-12.2c0-1.1-0.9-2.1-2.1-2.1h-7.5
			c-6.6,0-11.5,1.1-14.8,3.4c-3.3,2.3-5,5.5-5,9.7c0,3.4,1.1,6.1,3.4,8.1C642.3,117.8,645.4,118.8,649.1,118.8z"/>
		<path class="st0" d="M718.9,131.6h-13.5c-1.1,0-2.1-0.9-2.1-2.1V21.8c0-1.1,0.9-2.1,2.1-2.1h13.5c1.1,0,2.1,0.9,2.1,2.1v107.7
			C721,130.6,720.1,131.6,718.9,131.6z"/>
		<path class="st0" d="M786.7,130.2c-0.3-0.7-0.5-1.5-0.7-2.5c-0.4-1.5-2.2-2-3.4-1.1c-5.1,4.2-11.1,6.4-18,6.4
			c-7.9,0-14.4-2.3-19.4-6.8c-5-4.5-7.5-10.1-7.5-16.7c0-8.4,3.1-14.8,9.4-19.3c6.2-4.5,15.2-6.7,26.8-6.7h8.8
			c1.1,0,2.1-0.9,2.1-2.1v-3.1c0-4.1-1.1-7.3-3.4-9.8c-2.3-2.4-5.8-3.7-10.4-3.7c-4,0-7.3,1-9.9,3c-2.1,1.6-3.3,3.6-3.7,5.9
			c-0.2,1-1,1.7-2,1.7l-13.6,0c-1.2,0-2.2-1.1-2.1-2.3c0.4-3.4,1.8-6.7,4.2-9.8c2.9-3.8,6.8-6.7,11.7-8.8c4.9-2.1,10.4-3.2,16.5-3.2
			c9.2,0,16.6,2.3,22.1,7c5.5,4.6,8.3,11.2,8.4,19.5v35.5c0,7.1,1,12.7,3,17v1.2l-16.7,0C787.8,131.6,787,131.1,786.7,130.2z
			 M767.9,118.8c3.5,0,6.8-0.8,9.9-2.5c2.9-1.6,5.1-3.7,6.7-6.3c0.2-0.3,0.3-0.7,0.3-1.1l0-12.2c0-1.1-0.9-2.1-2.1-2.1h-7.5
			c-6.6,0-11.5,1.1-14.8,3.4c-3.3,2.3-5,5.5-5,9.7c0,3.4,1.1,6.1,3.4,8.1C761.1,117.8,764.1,118.8,767.9,118.8z"/>
		<path class="st0" d="M865.1,110.2c0-3.2-1.3-5.6-3.9-7.2c-2.6-1.6-6.9-3.1-12.9-4.4c-6-1.3-11-2.9-15.1-4.8
			c-8.8-4.3-13.2-10.5-13.2-18.6c0-6.8,2.9-12.5,8.6-17c5.7-4.6,13-6.8,21.8-6.8c9.4,0,17,2.3,22.8,7c5.2,4.2,8.1,9.5,8.6,15.8
			c0.1,1.2-0.8,2.3-2.1,2.3l-13.6,0c-1,0-1.9-0.8-2-1.8c-0.4-2.6-1.6-4.9-3.7-6.7c-2.5-2.3-5.9-3.4-10-3.4c-3.9,0-7.1,0.9-9.5,2.7
			c-2.5,1.8-3.7,4.2-3.7,7.2c0,2.7,1.1,4.8,3.4,6.3c2.3,1.5,6.9,3,13.8,4.5c6.9,1.5,12.4,3.3,16.3,5.5c4,2.1,6.9,4.6,8.8,7.6
			c1.9,3,2.9,6.6,2.9,10.8c0,7.1-2.9,12.8-8.8,17.2c-5.9,4.4-13.6,6.6-23.1,6.6c-6.5,0-12.2-1.2-17.3-3.5c-5-2.3-9-5.5-11.8-9.6
			c-2.3-3.4-3.7-7-4.1-10.9c-0.1-1.2,0.8-2.3,2.1-2.3l13.1,0c1,0,1.9,0.7,2,1.7c0.5,3.4,2,6,4.6,8c2.9,2.3,6.8,3.4,11.6,3.4
			c4.7,0,8.2-0.9,10.6-2.7C863.8,115.4,865.1,113,865.1,110.2z"/>
		<path class="st0" d="M944.3,130.2c-0.3-0.7-0.5-1.5-0.7-2.5c-0.4-1.5-2.2-2-3.4-1.1c-5.1,4.2-11.1,6.4-18,6.4
			c-7.9,0-14.4-2.3-19.4-6.8c-5-4.5-7.5-10.1-7.5-16.7c0-8.4,3.1-14.8,9.4-19.3c6.2-4.5,15.2-6.7,26.8-6.7h8.8
			c1.1,0,2.1-0.9,2.1-2.1v-3.1c0-4.1-1.1-7.3-3.4-9.8c-2.3-2.4-5.8-3.7-10.4-3.7c-4,0-7.3,1-9.9,3c-2.1,1.6-3.3,3.6-3.7,5.9
			c-0.2,1-1,1.7-2,1.7l-13.6,0c-1.2,0-2.2-1.1-2.1-2.3c0.4-3.4,1.8-6.7,4.2-9.8c2.9-3.8,6.8-6.7,11.7-8.8c4.9-2.1,10.4-3.2,16.5-3.2
			c9.2,0,16.6,2.3,22.1,7c5.5,4.6,8.3,11.2,8.4,19.5v35.5c0,7.1,1,12.7,3,17v1.2l-16.7,0C945.4,131.6,944.6,131.1,944.3,130.2z
			 M925.5,118.8c3.5,0,6.8-0.8,9.9-2.5c2.9-1.6,5.1-3.7,6.7-6.3c0.2-0.3,0.3-0.7,0.3-1.1V96.7c0-1.1-0.9-2.1-2.1-2.1h-7.5
			c-6.6,0-11.5,1.1-14.8,3.4c-3.3,2.3-5,5.5-5,9.7c0,3.4,1.1,6.1,3.4,8.1C918.7,117.8,921.7,118.8,925.5,118.8z"/>
		<path class="st0" d="M975.4,91.6c0-12.2,2.9-22,8.6-29.3c5.8-7.3,13.4-11,22.9-11c7.4,0,13.5,2.1,18.2,6.3
			c1.2,1.1,3.2,0.3,3.4-1.4l0.2-1.6c0.1-1.1,1-1.9,2.1-1.9h12c1.1,0,2.1,0.9,2.1,2.1v74.3c0,10.3-3.2,18.5-9.6,24.5
			c-6.4,6-15.1,9-26,9c-5.8,0-11.4-1.2-16.9-3.6c-4.9-2.1-8.7-4.8-11.5-8.1c-0.6-0.7-0.6-1.8,0-2.6l5.8-7.4c0.8-1,2.2-1.1,3.1-0.2
			c5.1,5.3,11.3,8,18.5,8c5.9,0,10.5-1.6,13.9-4.8c3.4-3.2,5.1-7.9,5.1-14v-0.6c0-1.7-2-2.7-3.3-1.6c-4.6,3.6-10.3,5.4-17.1,5.4
			c-9.2,0-16.8-3.7-22.6-11C978.3,114.7,975.4,104.6,975.4,91.6z M993,93.1c0,7.9,1.6,14.1,4.8,18.7c3.2,4.5,7.7,6.8,13.4,6.8
			c6.9,0,12.1-2.9,15.6-8.7c0.2-0.3,0.3-0.7,0.3-1.1V75.4c0-0.4-0.1-0.8-0.3-1.1c-3.4-5.6-8.5-8.4-15.4-8.4
			c-5.8,0-10.3,2.3-13.6,6.9C994.7,77.4,993,84.2,993,93.1z"/>
		<path class="st0" d="M1109.5,130.2c-0.3-0.7-0.5-1.5-0.7-2.5c-0.4-1.5-2.2-2-3.4-1.1c-5.1,4.2-11.1,6.4-18,6.4
			c-7.9,0-14.4-2.3-19.4-6.8c-5-4.5-7.5-10.1-7.5-16.7c0-8.4,3.1-14.8,9.4-19.3c6.2-4.5,15.2-6.7,26.8-6.7h8.8
			c1.1,0,2.1-0.9,2.1-2.1v-3.1c0-4.1-1.1-7.3-3.4-9.8c-2.3-2.4-5.8-3.7-10.4-3.7c-4,0-7.3,1-9.9,3c-2.1,1.6-3.3,3.6-3.7,5.9
			c-0.2,1-1,1.7-2,1.7l-13.6,0c-1.2,0-2.2-1.1-2.1-2.3c0.4-3.4,1.8-6.7,4.2-9.8c2.9-3.8,6.8-6.7,11.7-8.8c4.9-2.1,10.4-3.2,16.5-3.2
			c9.2,0,16.6,2.3,22.1,7c5.5,4.6,8.3,11.2,8.4,19.5v35.5c0,7.1,1,12.7,3,17v1.2l-16.7,0C1110.6,131.6,1109.8,131.1,1109.5,130.2z
			 M1090.7,118.8c3.5,0,6.8-0.8,9.9-2.5c2.9-1.6,5.1-3.7,6.7-6.3c0.2-0.3,0.3-0.7,0.3-1.1V96.7c0-1.1-0.9-2.1-2.1-2.1h-7.5
			c-6.6,0-11.5,1.1-14.8,3.4c-3.3,2.3-5,5.5-5,9.7c0,3.4,1.1,6.1,3.4,8.1C1083.9,117.8,1086.9,118.8,1090.7,118.8z"/>
		<path class="st0" d="M1184.9,66.6c0,1.3-1.1,2.2-2.4,2c-1.6-0.2-3.2-0.3-4.9-0.3c-7.9,0-13.3,3-16.2,8.9c-0.1,0.3-0.2,0.6-0.2,0.9
			v51.3c0,1.1-0.9,2.1-2.1,2.1h-13.5c-1.1,0-2.1-0.9-2.1-2.1V54.9c0-1.1,0.9-2.1,2.1-2.1h12.8c1.1,0,2,0.9,2.1,2l0.1,1.3
			c0.1,1.8,2.3,2.6,3.6,1.3c3.9-4,8.7-6,14.4-6c1.8,0,3.3,0.2,4.7,0.5c0.9,0.2,1.6,1.1,1.6,2L1184.9,66.6z"/>
		<path class="st0" d="M529.2,308.4V206.6c0-1.1,0.9-2.1,2.1-2.1h29.2c9.4,0,17.7,2.1,24.9,6.3c7.3,4.2,12.9,10.1,16.9,17.8
			c4,7.7,6,16.5,6,26.4v5.3c0,10-2,18.9-6,26.5c-4,7.6-9.7,13.5-17.1,17.6c-7.4,4.1-15.9,6.2-25.4,6.2h-28.4
			C530.2,310.5,529.2,309.6,529.2,308.4z M547.7,221.4v72.3c0,1.1,0.9,2.1,2.1,2.1h9.9c9.7,0,17.1-3,22.2-9.1c5.2-6,7.8-14.7,7.9-26
			v-5.9c0-11.5-2.5-20.3-7.5-26.4c-5-6.1-12.3-9.1-21.8-9.1h-10.8C548.6,219.3,547.7,220.3,547.7,221.4z"/>
		<path class="st0" d="M625,211.3c0-2.7,0.9-5,2.6-6.8c1.7-1.8,4.2-2.7,7.4-2.7s5.7,0.9,7.4,2.7c1.7,1.8,2.6,4.1,2.6,6.8
			c0,2.7-0.9,4.9-2.6,6.7c-1.7,1.8-4.2,2.7-7.4,2.7s-5.7-0.9-7.4-2.7C625.8,216.2,625,213.9,625,211.3z M641.7,310.5h-13.5
			c-1.1,0-2.1-0.9-2.1-2.1v-74.6c0-1.1,0.9-2.1,2.1-2.1h13.5c1.1,0,2.1,0.9,2.1,2.1v74.6C643.8,309.6,642.8,310.5,641.7,310.5z"/>
		<path class="st0" d="M659.9,270.5c0-12.2,2.9-22,8.6-29.3c5.8-7.3,13.4-11,22.9-11c7.4,0,13.5,2.1,18.2,6.3
			c1.2,1.1,3.2,0.3,3.4-1.4l0.2-1.6c0.1-1.1,1-1.9,2.1-1.9h12c1.1,0,2.1,0.9,2.1,2.1v74.3c0,10.3-3.2,18.5-9.6,24.5
			c-6.4,6-15.1,9-26,9c-5.8,0-11.4-1.2-16.9-3.6c-4.9-2.1-8.7-4.8-11.5-8.1c-0.6-0.7-0.6-1.8,0-2.6l5.8-7.4c0.8-1,2.2-1.1,3.1-0.2
			c5.1,5.3,11.3,8,18.5,8c5.9,0,10.5-1.6,13.9-4.8c3.4-3.2,5.1-7.9,5.1-14v-0.6c0-1.7-2-2.7-3.3-1.6c-4.6,3.6-10.3,5.4-17.1,5.4
			c-9.2,0-16.8-3.7-22.6-11C662.8,293.6,659.9,283.5,659.9,270.5z M677.5,272c0,7.9,1.6,14.1,4.8,18.7c3.2,4.5,7.7,6.8,13.4,6.8
			c6.9,0,12.1-2.9,15.6-8.7c0.2-0.3,0.3-0.7,0.3-1.1v-33.5c0-0.4-0.1-0.8-0.3-1.1c-3.4-5.6-8.5-8.4-15.4-8.4
			c-5.8,0-10.3,2.3-13.6,6.9C679.1,256.3,677.5,263.1,677.5,272z"/>
		<path class="st0" d="M747.6,211.3c0-2.7,0.9-5,2.6-6.8c1.7-1.8,4.2-2.7,7.4-2.7s5.7,0.9,7.4,2.7c1.7,1.8,2.6,4.1,2.6,6.8
			c0,2.7-0.9,4.9-2.6,6.7c-1.7,1.8-4.2,2.7-7.4,2.7s-5.7-0.9-7.4-2.7C748.4,216.2,747.6,213.9,747.6,211.3z M764.3,310.5h-13.5
			c-1.1,0-2.1-0.9-2.1-2.1v-74.6c0-1.1,0.9-2.1,2.1-2.1h13.5c1.1,0,2.1,0.9,2.1,2.1v74.6C766.3,309.6,765.4,310.5,764.3,310.5z"/>
		<path class="st0" d="M807.8,214.6v15c0,1.1,0.9,2.1,2.1,2.1h9.8c1.1,0,2.1,0.9,2.1,2.1v9c0,1.1-0.9,2.1-2.1,2.1h-9.8
			c-1.1,0-2.1,0.9-2.1,2.1v41.9c0,3,0.6,5.2,1.8,6.5c1.2,1.3,3.3,2,6.4,2c1.3,0,2.6-0.1,3.9-0.3c1.2-0.2,2.3,0.8,2.3,2v9.6
			c0,0.9-0.6,1.8-1.6,2c-3.5,0.8-6.8,1.3-10.1,1.3c-13.6,0-20.4-7.5-20.4-22.5v-42.6c0-1.1-0.9-2.1-2.1-2.1h-8.8
			c-1.1,0-2.1-0.9-2.1-2.1v-9c0-1.1,0.9-2.1,2.1-2.1h8.8c1.1,0,2.1-0.9,2.1-2.1v-15c0-1.1,0.9-2.1,2.1-2.1h13.5
			C806.8,212.6,807.8,213.5,807.8,214.6z"/>
		<path class="st0" d="M881.7,309.1c-0.3-0.7-0.5-1.5-0.7-2.5c-0.4-1.5-2.2-2-3.4-1.1c-5.1,4.2-11.1,6.4-18,6.4
			c-7.9,0-14.4-2.3-19.4-6.8c-5-4.5-7.5-10.1-7.5-16.7c0-8.4,3.1-14.8,9.4-19.3c6.2-4.5,15.2-6.7,26.8-6.7h8.8
			c1.1,0,2.1-0.9,2.1-2.1v-3.1c0-4.1-1.1-7.3-3.4-9.8c-2.3-2.4-5.8-3.7-10.4-3.7c-4,0-7.3,1-9.9,3c-2.1,1.6-3.3,3.6-3.7,5.9
			c-0.2,1-1,1.7-2,1.7h-13.6c-1.2,0-2.2-1.1-2.1-2.3c0.4-3.4,1.8-6.7,4.2-9.8c2.9-3.8,6.8-6.7,11.7-8.8c4.9-2.1,10.4-3.2,16.5-3.2
			c9.2,0,16.6,2.3,22.1,7c5.5,4.6,8.3,11.2,8.4,19.5v35.5c0,7.1,1,12.7,3,17v1.2l-16.7,0C882.7,310.5,882,310,881.7,309.1z
			 M862.8,297.7c3.5,0,6.8-0.8,9.9-2.5c2.9-1.6,5.1-3.7,6.7-6.3c0.2-0.3,0.3-0.7,0.3-1.1l0-12.2c0-1.1-0.9-2.1-2.1-2.1h-7.5
			c-6.6,0-11.5,1.1-14.8,3.4c-3.3,2.3-5,5.5-5,9.7c0,3.4,1.1,6.1,3.4,8.1C856,296.7,859,297.7,862.8,297.7z"/>
		<path class="st0" d="M932.6,310.5H919c-1.1,0-2.1-0.9-2.1-2.1V200.7c0-1.1,0.9-2.1,2.1-2.1h13.5c1.1,0,2.1,0.9,2.1,2.1v107.7
			C934.7,309.6,933.7,310.5,932.6,310.5z"/>
		<path class="st0" d="M587.1,464.7H549c-0.9,0-1.7,0.6-2,1.4l-7.6,21.9c-0.3,0.8-1.1,1.4-2,1.4h-14.7c-1.4,0-2.4-1.4-1.9-2.8
			l38.5-101.9c0.3-0.8,1.1-1.3,1.9-1.3h13.7c0.9,0,1.6,0.5,1.9,1.3l38.5,101.9c0.5,1.4-0.5,2.8-1.9,2.8h-14.8c-0.9,0-1.7-0.6-2-1.4
			l-7.7-21.9C588.8,465.3,588,464.7,587.1,464.7z M555.6,449.9h24.9c1.4,0,2.4-1.4,2-2.8L570,411.5c-0.6-1.9-3.3-1.9-3.9,0
			l-12.4,35.6C553.2,448.5,554.2,449.9,555.6,449.9z"/>
		<path class="st0" d="M668,424.4c0,1.3-1.1,2.2-2.4,2c-1.6-0.2-3.2-0.3-4.9-0.3c-7.9,0-13.3,3-16.2,8.9c-0.1,0.3-0.2,0.6-0.2,0.9
			l0,51.3c0,1.1-0.9,2.1-2.1,2.1h-13.5c-1.1,0-2.1-0.9-2.1-2.1v-74.6c0-1.1,0.9-2.1,2.1-2.1h12.8c1.1,0,2,0.9,2.1,2l0.1,1.3
			c0.1,1.8,2.3,2.6,3.6,1.3c3.9-4,8.7-6,14.4-6c1.8,0,3.3,0.2,4.7,0.5c0.9,0.2,1.6,1.1,1.6,2L668,424.4z"/>
		<path class="st0" d="M705,393.5v15c0,1.1,0.9,2.1,2.1,2.1h9.8c1.1,0,2.1,0.9,2.1,2.1v9c0,1.1-0.9,2.1-2.1,2.1H707
			c-1.1,0-2.1,0.9-2.1,2.1v41.9c0,3,0.6,5.2,1.8,6.5c1.2,1.3,3.3,2,6.4,2c1.3,0,2.6-0.1,3.9-0.3c1.2-0.2,2.3,0.8,2.3,2v9.6
			c0,0.9-0.6,1.8-1.6,2c-3.5,0.8-6.8,1.3-10.1,1.3c-13.6,0-20.4-7.5-20.4-22.5v-42.6c0-1.1-0.9-2.1-2.1-2.1h-8.8
			c-1.1,0-2.1-0.9-2.1-2.1v-9c0-1.1,0.9-2.1,2.1-2.1h8.8c1.1,0,2.1-0.9,2.1-2.1v-15c0-1.1,0.9-2.1,2.1-2.1h13.5
			C704,391.5,705,392.4,705,393.5z"/>
		<path class="st0" d="M776.5,468c0-3.2-1.3-5.6-3.9-7.2c-2.6-1.6-6.9-3.1-12.9-4.4c-6-1.3-11-2.9-15.1-4.8
			c-8.8-4.3-13.2-10.5-13.2-18.6c0-6.8,2.9-12.5,8.6-17c5.7-4.6,13-6.8,21.8-6.8c9.4,0,17,2.3,22.8,7c5.2,4.2,8.1,9.5,8.6,15.8
			c0.1,1.2-0.8,2.3-2.1,2.3l-13.6,0c-1,0-1.9-0.8-2-1.8c-0.4-2.6-1.6-4.9-3.7-6.7c-2.5-2.3-5.9-3.4-10-3.4c-3.9,0-7.1,0.9-9.5,2.7
			c-2.5,1.8-3.7,4.2-3.7,7.2c0,2.7,1.1,4.8,3.4,6.3c2.3,1.5,6.9,3,13.8,4.5c6.9,1.5,12.4,3.3,16.3,5.5c4,2.1,6.9,4.6,8.8,7.6
			c1.9,3,2.9,6.6,2.9,10.8c0,7.1-2.9,12.8-8.8,17.2c-5.9,4.4-13.6,6.6-23.1,6.6c-6.5,0-12.2-1.2-17.3-3.5c-5-2.3-9-5.5-11.8-9.6
			c-2.3-3.4-3.7-7-4.1-10.9c-0.1-1.2,0.8-2.3,2.1-2.3l13.1,0c1,0,1.9,0.7,2,1.7c0.5,3.4,2,6,4.6,8c2.9,2.3,6.8,3.4,11.6,3.4
			c4.7,0,8.2-0.9,10.6-2.7C775.3,473.2,776.5,470.9,776.5,468z"/>
	</g>
	<path class="st1" d="M467,493.1h-18.7c-0.6,0-1-0.4-1-1V19.9c0-0.6,0.4-1,1-1H467c0.6,0,1,0.4,1,1v472.2
		C468,492.6,467.5,493.1,467,493.1z"/>
	<g>
		<g>
			<g>
				<path class="st2" d="M381.9,198.8c-1-3.2-4.1-5.4-7.5-5.4l-105,0c-0.3,0-0.5,0-0.7,0.1c-5.4,2-7,7.6-4.6,11.6l86.1,147.8
					c1.4,2.4,3.9,3.9,6.7,3.9c0,0,0,0,0.1,0c2.7,0,5.3-1.4,6.7-3.8c17.8-29.4,27.2-63,27.2-97C390.8,236.6,387.8,217.3,381.9,198.8z
					"/>
				<path class="st2" d="M182.8,165.9c-2.4,4.1-0.8,9.8,4.8,11.6c0.2,0.1,0.5,0.1,0.7,0.1l174,0c0.2,0,0.5,0,0.7-0.1
					c5.5-1.9,7.2-7.4,4.9-11.5c-26.1-47.8-71.5-82-124.7-93.6c-3.4-0.7-6.8,0.8-8.5,3.7L182.8,165.9z"/>
				<path class="st2" d="M291.3,282.9c-1.4-2.4-4-3.9-6.8-3.9c0,0,0,0,0,0c-2.8,0-5.4,1.5-6.8,3.9l-86.4,149
					c-1.4,2.4-1.4,5.3-0.1,7.7c1.3,2.4,3.9,3.9,6.6,4l1.8,0.1c1.1,0.1,2.2,0.1,3.3,0.1c53,0,103.9-22.7,139.5-62.4
					c2.3-2.5,2.6-6.2,0.9-9.2L291.3,282.9z"/>
				<path class="st2" d="M142.8,308.6c0-0.2-0.1-0.4-0.3-0.6l-86.1-150c-1.4-2.4-3.9-3.9-6.7-3.9c-2.9-0.4-5.4,1.4-6.8,3.7
					c-18.3,29.7-28,63.7-28,98.3c0,19.4,3,38.7,8.9,57.2c1,3.2,4.1,5.4,7.5,5.4h103.8C139.9,318.6,144,314.4,142.8,308.6z"/>
				<path class="st2" d="M223,346.1c2.4-4.1,0.8-9.7-4.7-11.6c-0.2-0.1-0.5-0.1-0.7-0.1h-174c-0.2,0-0.5,0-0.7,0.1
					c-5.5,1.9-7.2,7.4-4.9,11.5c26.1,47.8,71.5,82,124.7,93.6c0.6,0.1,1.1,0.2,1.7,0.2c2.8,0,5.4-1.5,6.8-3.9L223,346.1z"/>
				<path class="st2" d="M116.6,231.3c0.4,0.6,1.1,1,1.8,1h3.3c2.8,0,5.4-1.5,6.8-3.9l86-148.3c1.4-2.4,1.4-5.3,0.1-7.7
					c-1.3-2.4-3.9-3.9-6.6-4l-1.8-0.1c-1.1-0.1-2.2-0.1-3.3-0.1c-52.5,0-102.9,22.3-138.6,61.3c-2.3,2.5-2.7,6.2-1,9.2L116.6,231.3z
					"/>
			</g>
		</g>
	</g>
	<g>
		<g>
			<path class="st3" d="M226.6,255.1l-36.4-24.8c-0.5-0.3-1.2-0.4-1.7-0.1c-0.5,0.3-0.9,0.8-0.9,1.5v49.7c0,0.6,0.3,1.2,0.9,1.5
				c0.2,0.1,0.5,0.2,0.8,0.2c0.3,0,0.7-0.1,0.9-0.3l36.4-24.8c0.5-0.3,0.7-0.8,0.7-1.4C227.4,256,227.1,255.5,226.6,255.1z
				 M190.9,276.3v-39.6c0-0.8,0.9-1.3,1.6-0.8l29.1,19.8c0.6,0.4,0.6,1.3,0,1.7l-29.1,19.8C191.8,277.6,190.9,277.1,190.9,276.3z"/>
			<path class="st3" d="M236.9,220c-52.8-40.3-112.9,19.8-72.6,72.6c0.1,0.2,0.3,0.3,0.4,0.4c52.8,40.3,112.9-19.8,72.6-72.6
				C237.2,220.3,237.1,220.1,236.9,220z M234.5,290.6c-49.3,37.5-105.3-18.5-67.8-67.8c0.1-0.2,0.3-0.3,0.4-0.4
				c49.3-37.5,105.3,18.5,67.8,67.8C234.8,290.3,234.7,290.5,234.5,290.6z"/>
		</g>
	</g>
</g>
</svg>
